<svg width="32" height="32" viewBox="0 0 32 32" fill="none" xmlns="http://www.w3.org/2000/svg">
<!-- Clean muffin design -->
<!-- Muffin top (dome shape) -->
<path d="M8 14C8 10 11 7 15 7C17 7 19 8 20 10C21 8 23 7 25 7C29 7 32 10 32 14C32 16 30 18 28 18H12C10 18 8 16 8 14Z" fill="#FF6600"/>
<!-- Muffin base -->
<rect x="6" y="18" width="20" height="10" rx="2" fill="#FF6600"/>
<!-- Simple vertical lines -->
<rect x="9" y="20" width="1.5" height="6" rx="0.75" fill="#000000"/>
<rect x="13" y="20" width="1.5" height="6" rx="0.75" fill="#000000"/>
<rect x="17" y="20" width="1.5" height="6" rx="0.75" fill="#000000"/>
<rect x="21" y="20" width="1.5" height="6" rx="0.75" fill="#000000"/>
<!-- Spots on top -->
<circle cx="14" cy="12" r="1.5" fill="#8B4513"/>
<circle cx="22" cy="13" r="1.2" fill="#8B4513"/>
<circle cx="18" cy="11" r="1" fill="#8B4513"/>
</svg>