<svg width="156" height="44" viewBox="0 0 156 44" fill="none" xmlns="http://www.w3.org/2000/svg" xmlns:xlink="http://www.w3.org/1999/xlink">
<g clip-path="url(#clip0_2064_14">
<path d="M45.3607 32.0154L35.9531 22.6078L52.4037 6.15734H64.2145L47.7639 22.6078L64.2145 39.0584H52.4037L45.3607 32.0154Z" fill="#0175C2"/>
<path d="M35.9531 22.6078L42.996 15.5648L52.4037 6.15734H64.2145L47.7639 22.6078L35.9531 22.6078Z" fill="#13B9FD"/>
<path d="M42.996 29.6507L47.7639 34.4186L52.4037 39.0584L64.2145 39.0584L47.7639 22.6078L42.996 27.3757L42.996 29.6507Z" fill="#0175C2"/>
<path d="M42.996 29.6507L47.7639 34.4186L52.4037 39.0584L64.2145 39.0584L47.7639 22.6078L42.996 27.3757L42.996 29.6507Z" fill="url(#paint0_linear_2064_14)"/>
<path d="M42.996 27.3757L47.7639 22.6078L42.996 17.8399L38.2281 22.6078L42.996 27.3757Z" fill="#42C5F7"/>
<g clip-path="url(#clip1_2064_14)">
<path d="M80.0469 13.3184H92.0881V15.3076H82.3886V20.1958H91.5791V22.1948H82.3886V28.4229H92.3965V30.4121H80.0469V13.3184Z" fill="#0D1117"/>
<path d="M96.2402 13.3184H98.5381V28.7207H105.1865V30.4121H96.2402V13.3184Z" fill="#0D1117"/>
<path d="M116.802 13.3184H119.031V25.2529C119.031 26.6367 118.793 27.8662 118.307 28.9409C117.801 30.0308 117.056 30.8711 116.072 31.4521C115.068 32.043 113.844 32.3385 112.401 32.3385C110.958 32.3385 109.734 32.0332 108.741 31.4323C107.738 30.8416 106.972 30.0109 106.446 28.9409C105.909 27.8611 105.641 26.6416 105.641 25.282V13.3184H107.969V25.282C107.969 26.3521 108.118 27.2923 108.406 28.1029C108.694 28.9036 109.131 29.5445 109.718 30.0256C110.294 30.5068 111.039 30.8662 111.943 31.0938C112.856 31.3213 113.918 31.4323 115.117 31.4323C116.326 31.4323 117.398 31.3213 118.321 31.0938C119.245 30.8662 120 30.5068 120.586 30.0256C121.173 29.5445 121.61 28.9036 121.888 28.1029C122.176 27.2923 122.325 26.3521 122.325 25.282V13.3184H124.653V25.2529C124.653 26.6367 124.415 27.8662 123.929 28.9409C123.433 30.0308 122.688 30.8711 121.704 31.4521C120.71 32.043 119.486 32.3385 118.043 32.3385H116.802V13.3184Z" fill="#0D1117"/>
<path d="M139.329 13.3184H143.884C145.229 13.3184 146.404 13.5459 147.398 14.001C148.392 14.4561 149.147 15.0273 149.644 15.7148C150.141 16.4023 150.389 17.1191 150.389 17.8652C150.389 18.4561 150.24 19.0078 149.932 19.5205C149.624 20.0332 149.197 20.4883 148.64 20.8857C148.084 21.2832 147.428 21.6035 146.683 21.8467C147.527 22.0146 148.282 22.2814 148.938 22.6592C149.594 23.0371 150.111 23.5352 150.479 24.1538C150.846 24.7725 151.035 25.5039 151.035 26.3521C151.035 27.2539 150.787 28.043 150.29 28.7305C149.793 29.418 149.078 29.9551 148.143 30.3428C147.209 30.7305 146.094 30.9238 144.799 30.9238H139.329V13.3184ZM141.658 20.6826H143.686C144.6 20.6826 145.376 20.5372 145.994 20.2461C146.621 19.955 147.089 19.5693 147.398 19.0889C147.706 18.6084 147.855 18.0527 147.855 17.4216C147.855 16.7637 147.706 16.1914 147.398 15.7051C147.089 15.2188 146.621 14.8379 145.994 14.5625C145.376 14.2871 144.6 14.1494 143.686 14.1494H141.658V20.6826ZM141.658 29.0928H144.102C145.189 29.0928 146.114 28.9409 146.869 28.6367C147.625 28.3325 148.182 27.918 148.55 27.3931C148.918 26.8682 149.097 26.2397 149.097 25.5078C149.097 24.7461 148.938 24.0889 148.61 23.5361C148.282 22.9834 147.785 22.5547 147.139 22.25C146.483 21.9453 145.688 21.793 144.751 21.793H141.658V29.0928Z" fill="#0D1117"/>
<path d="M164.033 13.3184V15.3076H158.334V20.1958H163.436V22.1948H158.334V28.4229H164.341V30.4121H156.006V13.3184H164.033Z" fill="#0D1117"/>
<path d="M178.273 30.4121H175.895L175.088 28.0439H168.837L168.039 30.4121H165.652L171.718 13.3184H172.237L178.273 30.4121ZM169.515 26.2451H174.41L171.948 19.0742L169.515 26.2451Z" fill="#0D1117"/>
<path d="M192.117 30.4121H189.789V21.7441C189.789 21.2734 189.78 20.7266 189.751 20.1035C189.721 19.4805 189.682 18.8574 189.633 18.2344C189.136 19.3633 188.619 20.3477 188.073 21.1875L183.049 30.4121H180.771V13.3184H183.099V21.3164C183.099 22.0674 183.109 22.7842 183.128 23.4668C183.148 24.1494 183.177 24.7725 183.217 25.3361C183.734 24.1396 184.221 23.0859 184.688 22.1752L189.594 13.3184H192.117V30.4121Z" fill="#0D1117"/>
</g>
</g>
<defs>
<linearGradient id="paint0_linear_2064_14" x1="47.7639" y1="22.6078" x2="47.7639" y2="39.0584" gradientUnits="userSpaceOnUse">
<stop stop-color="#1FBCFD"/>
<stop offset="1" stop-color="#0174C2"/>
</linearGradient>
<clipPath id="clip0_2064_14">
<rect width="156" height="44" fill="white"/>
</clipPath>
<clipPath id="clip1_2064_14">
<rect width="112" height="19.0201" fill="white" transform="translate(80.0469 13.3184)"/>
</clipPath>
</defs>
</svg>